# xmcd
#
# Track frame offsets:
#	150
#	20190
#	37850
#	63060
#	82050
#	109445
#	137083
#	157565
#	180815
#	203678
#
# Disc length: 3017 seconds
#
# Revision: 4293787650
# Processed by: cddbd v1.5.2PL0 Copyright (c) Steve Scherf et al.
# Submitted via: EZCDAudioConverter 8.0.2.1
#
DISCID=740bc70a
DTITLE=Various Artist - Chuyến Đi Chân Lý
DYEAR=1988
DGENRE=Miscellaneous
TTITLE0=Lê Uyên - Những Chuyến Đi Chân Lý
TTITLE1=Tuấn Anh - Người đã tới
TTITLE2=Giao Linh - Hát cho linh hồn anh
TTITLE3=Huy Sinh - Mùa đông và lữ khách
TTITLE4=Thanh Mai - Thật hay mơ
TTITLE5=Lê Uyên - Nhớ quá quê hương ơi
TTITLE6=Tuấn Anh - Nàng cô đơn
TTITLE7=Giao Linh - Nhớ người tha hương
TTITLE8=Huy Sinh - Theo dấu hải âu
TTITLE9=Thanh Mai - Trả lại tôi tình đầu
EXTD=
EXTT0=
EXTT1=
EXTT2=
EXTT3=
EXTT4=
EXTT5=
EXTT6=
EXTT7=
EXTT8=
EXTT9=
PLAYORDER=
